<?xml version="1.0" encoding="UTF-8"?>
<svg id="Capa_1" data-name="Capa 1" xmlns="http://www.w3.org/2000/svg" viewBox="0 0 915.57 1325.05">
  <defs>
    <style>
      .cls-1 {
        fill: #40160c;
      }

      .cls-2 {
        fill: #78b456;
      }

      .cls-3 {
        fill: #f65927;
      }

      .cls-4 {
        fill: #669c4c;
      }

      .cls-5 {
        fill: #fa713c;
      }

      .cls-6 {
        fill: #d38d5a;
        stroke: #422918;
        stroke-miterlimit: 10;
        stroke-width: 2px;
      }

      .cls-7 {
        fill: #79b657;
      }

      .cls-8 {
        fill: #370e04;
      }

      .cls-9 {
        fill: #bd6327;
      }

      .cls-10 {
        fill: #e9bd71;
      }

      .cls-11 {
        fill: #82d1df;
      }

      .cls-12 {
        fill: #524036;
      }

      .cls-13 {
        fill: #451703;
      }

      .cls-14 {
        fill: #f2481b;
      }

      .cls-15 {
        fill: #e83b12;
      }

      .cls-16 {
        fill: #473b34;
      }

      .cls-17 {
        fill: #4f1d05;
      }

      .cls-18 {
        fill: #602b11;
      }

      .cls-19 {
        fill: #c66c31;
      }

      .cls-20 {
        fill: #b55e26;
      }

      .cls-21 {
        fill: #b25822;
      }

      .cls-22 {
        fill: #7cb9c7;
      }

      .cls-23 {
        fill: #5a260f;
      }

      .cls-24 {
        fill: #f8703b;
      }

      .cls-25 {
        fill: #582616;
      }

      .cls-26 {
        fill: #46362f;
      }

      .cls-27 {
        fill: #faf7f5;
      }

      .cls-28 {
        fill: #69a04b;
      }

      .cls-29 {
        fill: #f6b869;
      }

      .cls-30 {
        fill: #531f05;
      }

      .cls-31 {
        fill: #7cbac8;
      }

      .cls-32 {
        fill: #4f1e06;
      }

      .cls-33 {
        fill: #d37838;
      }

      .cls-34 {
        fill: #551f17;
      }

      .cls-35 {
        fill: #b55c25;
      }

      .cls-36 {
        fill: #79b557;
      }

      .cls-37 {
        fill: #461c11;
      }

      .cls-38 {
        fill: #4e443e;
      }

      .cls-39 {
        fill: #fcfcfb;
      }

      .cls-40 {
        fill: #66a657;
      }

      .cls-41 {
        fill: #57483f;
      }

      .cls-42 {
        fill: #4a433d;
      }

      .cls-43 {
        fill: #f1c27a;
      }

      .cls-44 {
        fill: #584e48;
      }

      .cls-45 {
        fill: #fcc172;
      }

      .cls-46 {
        fill: #f65726;
      }

      .cls-47 {
        fill: #d47838;
      }

      .cls-48 {
        fill: #b35b25;
      }

      .cls-49 {
        fill: #541f0a;
      }

      .cls-50 {
        fill: #524942;
      }

      .cls-51 {
        fill: #391109;
      }

      .cls-52 {
        fill: #faf8f7;
      }

      .cls-53 {
        fill: #f7a749;
      }

      .cls-54 {
        fill: #57240f;
      }

      .cls-55 {
        fill: #541f05;
      }

      .cls-56 {
        fill: #f6ebd9;
      }

      .cls-57 {
        fill: #f7703a;
      }

      .cls-58 {
        fill: #5a2710;
      }

      .cls-59 {
        fill: #d47938;
      }

      .cls-60 {
        fill: #66999f;
      }

      .cls-61 {
        fill: #f75a28;
      }

      .cls-62 {
        fill: #584940;
      }

      .cls-63 {
        fill: #4e1d08;
      }

      .cls-64 {
        fill: #50382a;
      }

      .cls-65 {
        fill: #f7ad4d;
      }

      .cls-66 {
        fill: #473730;
      }

      .cls-67 {
        fill: #572512;
      }

      .cls-68 {
        fill: #f57a40;
      }

      .cls-69 {
        fill: #70645e;
      }

      .cls-70 {
        fill: #4f1e05;
      }

      .cls-71 {
        fill: #511e06;
      }

      .cls-72 {
        fill: #501e06;
      }

      .cls-73 {
        fill: #fbcd85;
      }

      .cls-74 {
        fill: #5a2b18;
      }

      .cls-75 {
        fill: #483c35;
      }

      .cls-76 {
        fill: #73665f;
      }

      .cls-77 {
        fill: #c76a2c;
      }

      .cls-78 {
        fill: #66949a;
      }

      .cls-79 {
        fill: #45180e;
      }

      .cls-80 {
        fill: #401204;
      }

      .cls-81 {
        fill: #f45725;
      }

      .cls-82 {
        fill: #f49d41;
      }

      .cls-83 {
        fill: #69a2ac;
      }
    </style>
  </defs>
  <path class="cls-83" d="M504.35,363.07l5.59,2.75c-.74.91-1.48,1.81-2.24,2.75-.57-.5-1.12-1-1.68-1.51q-.47-.42-.94-.85-.73-.94-.73-3.13Z"/>
  <path class="cls-49" d="M0,1316.05c1.71,1.62,3.37,3.29,5,5v2c.99.33,1.98.66,3,1v1H0v-9Z"/>
  <path class="cls-25" d="M0,1316.05l5,5c-.33.66-.66,1.32-1,2-1.32-.66-2.64-1.32-4-2v-5Z"/>
  <path class="cls-71" d="M785.68,29.84c.9.8,1.8,1.61,2.69,2.43q1.19,1.1,2.71,2.21c.41.34.82.68,1.25,1.03v1.1h1.12q.75.71,1.64,1.75c.35.41.7.81,1.06,1.23.4.47.8.93,1.21,1.41.46.51.92,1.01,1.39,1.53,15.34,17.06,25.13,39.63,27.24,62.31.22,2.27.55,3.75,1.99,5.54,7.82,10.75,8.28,26.41,6.39,39.05-1.94,10.78-7.34,21.73-16.34,28.44-6.27,4.06-13.05,7.18-20.67,7.12.07,2.46.14,4.92.21,7.39.02.83.05,1.67.07,2.5.06,2.39.14,4.78.24,7.17.04.99.06,1.98.08,2.96.17,4.03,1.22,6.58,3.56,9.86.3.44.6.89.91,1.35.9,1.32,1.83,2.63,2.75,3.94.5.73,1.01,1.46,1.51,2.19,2.75,3.93,5.71,7.6,9.11,11,.42.43.85.86,1.28,1.3,5.2,4.95,11.48,7.29,18.15,9.73,8.39,3.07,14.48,6.54,18.46,14.73,2.09,4.5,2.54,8.34,2.37,13.27.41.14.82.29,1.24.44,1.59.68,2.77,1.45,4.15,2.48,2.81,2.05,5.67,4.01,8.56,5.94,5.64,3.77,11.23,7.62,16.81,11.47,1.91,1.32,3.82,2.63,5.73,3.95.46.32.93.64,1.41.97,2.55,1.75,5.1,3.49,7.67,5.21,1.78,1.2,3.55,2.4,5.32,3.61.33.23.66.45,1.01.68.94.65,1.87,1.3,2.8,1.96.52.37,1.05.73,1.58,1.11,2.04,1.85,2.9,3.67,3.21,6.38,0,.68,0,1.36,0,2.06,0,.37,0,.74,0,1.13,0,.78,0,1.57,0,2.35,0,1.18,0,2.36.01,3.53,0,4.95.02,10.2-3.16,14.28-6.24,4.1-16.27,4.45-23.45,5.71-3.28.58-6.55,1.16-9.82,1.75-1.15.21-2.31.41-3.46.62-4.2.75-8.39,1.5-12.58,2.27-8.81,1.62-17.62,3.18-26.48,4.54-5.6.87-11.18,1.84-16.76,2.84-12.49,2.22-25.01,4.23-37.54,6.18-1.12.17-2.24.35-3.36.53-1.38.22-2.77.43-4.15.64q-.92.14-1.86.29c-.54.08-1.07.17-1.63.25q-1.42.23-3.03.79v8.79c1.36.48,2.72.95,4.12,1.44,7.08,2.58,13.44,6.06,17.09,12.88,2.18,4.79,3.19,9.56,1.64,14.7-2.33,3.9-5.72,5.42-10,6.7-7.25,1.69-14.24,2.33-21.67,2.34-.41,0-.82,0-1.24,0-6.66,0-13.06-.44-19.58-1.79-.75-.14-1.5-.27-2.25-.41-4.56-.94-8.6-2.5-12.81-4.44q-.72-.33-1.46-.67-7.91-3.8-9.89-7.23c-.58-2.09-.56-4.11-.54-6.27q0-.67,0-1.36c0-1.42.02-2.84.03-4.27,0-.97.01-1.93.02-2.9.01-2.36.03-4.73.05-7.09-.43.08-.86.16-1.3.24-1.97.37-3.93.73-5.9,1.1q-1.01.19-2.04.38c-3.81.7-7.58,1.29-11.45,1.57,0,.58.02,1.16.03,1.76.03,2.16.05,4.32.07,6.49,0,.93.02,1.87.03,2.8.02,1.35.03,2.69.04,4.04,0,.41.02.83.03,1.25,0,3.3-.67,5.87-2.86,8.48-12.96,11.13-29.28,13.98-46,12.96-8.52-.66-18.93-2.48-24.94-8.99-2.3-2.78-2.23-6.11-1.89-9.55,1.71-7.1,6.19-12.6,12.36-16.48q4.69-2.76,6.09-2.76c-.05-3.01-.11-6.02-.18-9.04-.02-1.02-.04-2.05-.06-3.07-.03-1.47-.06-2.95-.09-4.42q0-.69-.02-1.39-.02-3.04-1.33-5.72-.92-.71-2.04-1.24c-.41-.22-.82-.43-1.24-.65q-.66-.34-1.33-.68c-10.35-5.46-19.88-11.83-27.54-20.7-.28-.3-.55-.6-.84-.91h-.56c-.05.7-.11,1.4-.17,2.11-.71,8.25-2.1,15.71-5.98,23.17q-.37.74-.75,1.5c-4.84,9.3-12.53,16.4-21.62,21.58q-.71.41-1.43.82c-2.76,1.47-5.63,2.47-8.6,3.4-.35.11-.71.22-1.07.34-10.7,3.2-22.43,3.19-33.07-.17-.63-.2-1.27-.4-1.92-.6-7.92-2.76-13.99-6.81-19.89-12.59-.48-.46-.96-.93-1.45-1.41-6.02-6.01-10.13-13.58-12.52-21.67-.17-.56-.33-1.12-.5-1.7-2.39-9.59-2.2-20.28,1.06-29.63.2-.61.39-1.22.59-1.85,2.72-7.74,7.57-13.86,13.39-19.59.44-.44.88-.88,1.34-1.34,10.64-10.02,24.58-13.81,39.01-13.73,12.01.27,21.11,3.79,31.22,10.12v-20.88l-2.24,1.1q-1.4,0-2.8-.55c-4.65-5.46-3.29-15.29-2.8-21.98.6-5.54,1.69-11.03,2.8-16.49-.26.2-.52.4-.79.6-.35.26-.69.51-1.05.77-.34.26-.68.51-1.03.77q-1.04.6-2.93.56-1.47-.52-2.03-1.61c-.82-14.02,3.29-27.35,8.95-40.12-.58.27-1.15.54-1.75.82-1.91.8-3.43,1.06-5.52.82q-1.12-1.1-1.24-2.1c.49-6.94,4.45-13.39,8.09-19.21q1.22-1.85,1.39-3.96c-.41-1.12-.88-2.09-1.48-3.12-.21-.38-.43-.76-.65-1.14q-.34-.6-.69-1.21c-4.61-8.36-6.2-16.78-6.15-26.24,0-.67,0-1.35,0-2.05.13-9.42,1.61-18.29,7.14-26.19,2.28-3.47,3.17-6.96,4.11-10.95.37-1.46.75-2.92,1.13-4.38.1-.37.19-.74.29-1.11,2.41-8.98,5.94-17.79,10.45-25.95.55-1,1.07-2.01,1.59-3.03,2.74-5.31,6.01-10.17,9.57-14.99.23-.32.46-.63.7-.96,6.64-9.1,15.16-17.33,24.47-23.77q.5-.35,1-.7c18.66-12.89,39.51-20.47,62.19-22.93.45-.05.9-.1,1.36-.16,34.91-3.62,70.54,6.26,97.11,29.11Z"/>
  <path class="cls-45" d="M722.93,90.08q.74.34,1.49.69c.99.46,1.97.92,2.95,1.4,3.46,1.61,5.64,1.85,9.33.55q.63-.28,1.28-.57c8.59-3.5,16.84-2.63,25.34.69,6.98,3,13.09,7.12,17.82,13.02q.47.56.95,1.13c12.3,15.72,12.43,39.11,11.07,57.9-.31,4.55-.36,9.08-.35,13.64,0,.82,0,1.64,0,2.47,0,1.71,0,3.41,0,5.12,0,2.17,0,4.33,0,6.5,0,1.69,0,3.38,0,5.07,0,.8,0,1.6,0,2.4,0,4.19.11,8.33.51,12.5.21,2.54.22,5.08.22,7.63,0,.56,0,1.12,0,1.69,0,1.18,0,2.35,0,3.53,0,1.75.01,3.51.02,5.26.02,7.72-.41,15.32-1.24,23-.07.67-.14,1.34-.21,2.02-.17,1.5-.35,3-.56,4.5-.07.51-.14,1.03-.21,1.56q-1.85,13.1-4.06,16.1-1.61.45-3.74.7c-.39.05-.79.1-1.2.15-1.34.16-2.67.31-4.01.46-.95.11-1.9.22-2.85.34-3.33.39-6.67.75-10.01,1.11-.66.07-1.32.14-2,.22-5.04.55-10.08,1.08-15.12,1.6q-1.06.11-2.14.22c-2.04.21-4.09.42-6.13.63-.6.06-1.21.13-1.83.19-5.81.57-11.56.54-17.37.16-11.02-.62-21.93-.23-32.93.58-2.5.18-4.97.3-7.47.24-.08-.48-.16-.96-.25-1.45-1.43-7.46-4.2-13.01-9.82-18.33q-.46-.44-.93-.89c-3.01-2.74-6.29-4.6-9.9-6.49-7.11-3.73-12.96-7.77-17.05-14.74-.77-2.53-.91-4.93-1.02-7.56q-.04-1.6-.79-2.62c-.73-1.81-.21-2.94.33-4.79.1-.35.2-.69.3-1.05.32-1.11.64-2.21.97-3.32,2.28-7.77,3.71-15.12,3.67-23.25,0-.68,0-1.37,0-2.07-.08-7.54-.63-15.25-2.46-22.6-1.11-4.81-.28-8.78,1.11-13.46,1.87-6.35,2.92-12.64,2.98-19.25,0-.38,0-.75.01-1.14.01-1.53.02-3.06,0-4.6-.04-6.08,1.12-10.68,3.79-16.16.22-.47.44-.93.67-1.41.55-1.14,1.14-2.25,1.75-3.36.21-.39.42-.78.64-1.18,2.01-3.6,4.34-6.82,7.01-9.99.41-.49.82-.97,1.24-1.47,2.83-3.22,5.88-5.92,9.39-8.42.45-.33.9-.65,1.37-.99,14.55-9.84,33.64-11.15,49.46-3.79Z"/>
  <path class="cls-6" d="M642.47,169.06h.56c.39,2.24.78,4.47,1.16,6.71.13.76.26,1.52.4,2.28,2.22,12.68,3.4,26.24.12,38.83q-.23.87-.45,1.76-3.09,11.8-4.02,13.63c-.92.4-1.85.77-2.8,1.1-.45,6.99-.02,11.83,4.63,17.49,4.57,4.85,10.2,8.01,16.02,11.2,7.43,4.12,13.65,9.39,16.88,17.39,1.4,4.99,1.03,11.29-1.19,16.03q-1.18,1.26-2.24,2.2c-.05-.56-.1-1.12-.15-1.69-.5-4.99-1.47-9.15-3.77-13.7h-2.8c-.6,1.75-.54,2.64.21,4.33,1.83,4.48,2.16,9.5.94,14.19-1.35,1.49-1.82,1.52-3.77,1.75-.8.04-1.61.07-2.41.07q-.06-.78-.13-1.57c-.5-4.77-1.22-9.37-4.35-13.27q-1.45-.49-2.8-.55c-.55,1.44-.7,2.4-.12,3.85.4.76.81,1.52,1.23,2.27,1.15,2.1,1.23,3.9,1.26,6.25q.02.94.04,1.91-.18,1.67-.89,2.7c-1.36.87-2.71.87-4.3.94-1.82-.52-2.34-1.53-3.37-3.07-1.02-2.05-1.88-4.16-2.75-6.27-1.34-3.12-2.54-5.56-5.9-6.94-1.7-.58-3.4-1.1-5.12-1.6-10.62-3.13-18.79-8.45-24.31-18.16-7.54-14.09-8.96-30.12-4.29-45.4,1.83-5.55,4.32-10.51,7.79-15.24,1.45-2.04,1.84-3.4,1.59-5.87q-1.87,0-3.91.55c-1.07,1.2-1.73,2.13-2.48,3.5-.21.36-.42.73-.63,1.1-8.84,15.83-12.24,34.88-7.19,52.49,3.14,10.34,9.22,21.04,19.06,26.53,4.41,2.32,8.91,3.99,13.71,5.35.52.2,1.04.4,1.57.61.18.54.37,1.09.56,1.65-1.63.54-3,.72-4.7.89-.6.06-1.2.13-1.82.19-1.25.13-2.5.25-3.76.37-4.19.45-8.98.99-12.09,4.05q-.19,1.14-.18,2.46c-.01.51-.02,1.02-.03,1.55q0,.83-.01,1.68t-.02,1.73c-.01,1.21-.02,2.42-.02,3.64-.01,1.84-.05,3.68-.08,5.52,0,1.18-.01,2.36-.02,3.54-.01.55-.03,1.09-.04,1.65.03,5.18,2.23,8.7,5.89,12.32.75.68,1.51,1.35,2.28,2.02.37.34.75.67,1.13,1.02,3.09,2.76,6.22,5.48,9.42,8.11q.62.52,1.26,1.04c.43.35.85.7,1.29,1.05q.94,1.04.94,3.24c-2.76-.8-5.13-1.94-7.62-3.33-.39-.22-.78-.44-1.19-.66-8.11-4.61-14.72-10.85-21.35-17.27q-.71-.68-1.43-1.37c-3.61-3.53-5.28-6.77-6.86-11.45-1.33-3.86-2.97-7.36-4.99-10.91-.86-2.02-.95-3.41-.74-5.58q.55-1.19,1.12-2.2c.37-2.93.02-5.51-1.12-8.24q-1.23-.53-2.8-.55c-1.25.8-2.25,1.76-3.36,2.75h-1.12c-.61-6.75-.74-13.5-.87-20.27-.02-1.13-.05-2.26-.07-3.39-.06-2.74-.12-5.48-.17-8.22-1.97.34-3.15.63-4.65,1.96q-.74.66-1.5,1.34c-.37-.18-.74-.36-1.12-.55-.78-14.04,2.31-28.17,5.59-41.77-2.75.73-4.48,1.83-6.64,3.64-.54.45-1.08.9-1.64,1.36-.41.34-.81.69-1.23,1.04l-1.12-.55c1.06-12.71,5.35-25.11,11.58-36.26.78-1.8.91-3.02.72-4.95-.18-.18-.37-.36-.56-.55-3.08.12-4.92,1-7.44,2.72q-.95.58-2.07.58c1.31-4.66,3.64-8.53,6.15-12.64,2.07.82,3.1,1.99,4.51,3.68,4.23,4.72,9.57,8.03,16.06,8.54,1.59.02,3.18,0,4.77-.05,1.07-.02,2.14-.05,3.21-.06q.7-.02,1.41-.04c1.44.04,2.74.3,4.15.59q9.03.7,17.33-2.2c.55-.34,1.1-.68,1.66-1.03,5.91-4.01,9.4-9.09,12.32-15.45Z"/>
  <path class="cls-6" d="M719.08,31.11c2.7.77,5.02,1.93,7.41,3.37q.55.33,1.12.67c3.14,1.91,6.02,4.01,8.81,6.41.27.23.55.46.83.7,5.75,4.86,10.5,10.33,14.8,16.48.27.38.54.76.82,1.15.51.72,1.01,1.46,1.5,2.2q.76,1.14,2.19,2.56c1.29.18,2.58.36,3.91.55v-11.54c9.25,9.09,14.02,23.16,15.66,35.72q1.31.07,2.8-.55c1.64-2,2.77-4.3,3.91-6.6h1.12c2.72,7.26,3.15,13.78,2.97,21.47-.01,1.07-.03,2.14-.04,3.21-.03,2.58-.08,5.17-.14,7.75-1.28-1.65-2.4-3.34-3.49-5.12-1.53-2.41-3.15-4.34-5.29-6.24q-.72-.74-.72-1.84-.47-.21-.95-.42c-1.48-.78-2.72-1.72-4.05-2.74-3.34-2.42-6.84-4.07-10.66-5.63-.48-.2-.96-.4-1.45-.6-7.56-2.8-15.1-1.74-22.59.6-.56.31-1.12.62-1.7.93-2.1.91-3.44.82-5.57.17-2.37-.91-4.68-1.94-6.99-2.99-12.78-5.74-25.86-6.39-39.16-1.65-5.57,2.11-10.19,4.79-14.8,8.48-.46.35-.91.7-1.38,1.06-9.17,7.43-15.79,19.26-19.31,30.27-.37-.18-.74-.36-1.12-.55-.29-1.49-.53-2.96-.73-4.47-1.67-10.87-5.89-21.88-15.13-28.67-6.88-4.41-14.05-5.66-22.16-5.34,4.6-5.33,12.05-7.82,18.45-10.44q.19-1.96-.7-3.64c-.32-.25-.65-.5-.98-.76-.35-.28-.7-.55-1.07-.84-1.54-1.07-3.15-2.02-4.8-2.92-.28-.21-.56-.43-.84-.65v-1.65c10.27-5.73,21.65-7.83,33.34-7.73q.84,0,1.7,0c1.37,0,2.73.02,4.1.03.16-2.15-.05-3.14-1.47-4.79-.31-.37-.63-.74-.95-1.12q-.5-.56-1-1.14c-.64-.75-1.29-1.49-1.93-2.24q-.47-.55-.96-1.11c-1.51-1.8-2.91-3.66-4.31-5.54,15.33-2.44,30.14-2.85,44.35,4.22,1.59.77,2.55.88,4.3.73-.32-2.97-1.38-5.29-2.69-7.93q-.29-.6-.58-1.21c-1.23-2.52-2.56-4.94-4-7.35,9.31-.29,20.67,4.31,27.96,9.89,1.13,1.06,1.92,2.02,2.8,3.3v1.1q1.66-.27,3.36-.55c.33-3.66-.84-6.43-2.24-9.79-.42-1.03-.84-2.07-1.26-3.1-.19-.45-.37-.91-.57-1.37q-.41-1.12-.41-2.22Z"/>
  <path class="cls-41" d="M852.72,276.78c2.31.14,4.13,1.68,5.98,2.92.37.24.73.49,1.11.74,3.18,2.12,6.33,4.3,9.46,6.49,2.66,1.85,5.33,3.68,8.02,5.48,3.18,2.13,6.3,4.33,9.4,6.56,4.94,3.54,10.04,6.81,15.19,10.05,1.52.96,3.02,1.94,4.52,2.93-1.75,1.15-2.75,1.39-4.79,1.75-.66.12-1.32.24-2,.36-.74.13-1.48.26-2.22.39-.79.14-1.57.28-2.36.42-1.75.32-3.51.63-5.26.94-3.16.56-6.31,1.13-9.47,1.7-4.71.85-9.41,1.7-14.12,2.55-.58.11-1.17.21-1.77.32-2.57.46-5.14.93-7.7,1.39-11.5,2.07-22.99,4.17-34.48,6.28-1.56.29-3.13.57-4.69.86-8.2,1.5-16.39,3.02-24.56,4.67-4.59.92-9.19,1.64-13.82,2.33-10.73,1.62-21.41,3.53-32.1,5.38-3.69.64-7.38,1.27-11.06,1.9-2.84.49-5.67.97-8.51,1.46-1.39.24-2.77.47-4.16.71-6.8,1.16-13.59,2.35-20.35,3.7-4.74.95-9.5,1.78-14.27,2.6-1.49.26-2.98.52-4.47.78-.96.17-1.92.33-2.88.5-.44.08-.88.15-1.33.23q-5.58.95-7.25-.12c-.31-.3-.62-.6-.93-.9q-.52-.49-1.05-.99t-1.09-1.07c-.75-.71-1.5-1.42-2.25-2.13-.36-.34-.71-.68-1.08-1.03-2.08-1.97-4.28-3.8-6.48-5.63-.34-.28-.68-.56-1.02-.85-.29-.24-.58-.48-.88-.73-1.31-1.15-2.53-2.38-3.77-3.6-1.27-1.19-2.56-2.36-3.84-3.54q-.54-.5-1.1-1.01c-1.53-1.4-3.06-2.8-4.59-4.2-.75-.68-1.5-1.37-2.25-2.05-.7-.64-1.4-1.28-2.09-1.91-1.64-1.5-3.25-3.02-4.82-4.59-1.7-1.69-3.49-3.25-5.32-4.8-2.36-2.03-4.61-4.17-6.88-6.29-1.59-1.48-3.15-2.89-4.88-4.22-.37-.3-.74-.61-1.12-.92v-1.1c3.71-.86,7.4-1.47,11.18-1.96.52-.07,1.04-.14,1.58-.21,3.2-.42,6.4-.79,9.6-1.13.26.53.53,1.06.8,1.61.35.7.7,1.4,1.05,2.1.17.35.35.7.52,1.06.73,1.45,1.41,2.78,2.48,4.02,1.09,1.63,1.06,3.33,1.19,5.23.55,5.43,2.44,10.43,6.65,14.18,3.05,2.24,6.34,4.07,9.67,5.88.63.35,1.26.7,1.91,1.05,14.48,7.56,30.91,9.46,47.05,9.53q.61,0,1.23,0c6.26.03,12.37-.43,18.58-1.25.41-.05.82-.11,1.25-.16,10.6-1.41,20.89-2.96,30.63-7.53.36-.16.72-.32,1.09-.49,5.86-2.67,11.2-6.28,14.01-12.15.18-.36.37-.73.56-1.1.04-1.49.05-2.97.03-4.47q0-.62,0-1.26c0-1.02-.02-2.05-.03-3.07,1.31,1.53,2.19,2.61,2.83,4.53q.26.75.52,1.51c.55.18,1.11.36,1.68.55q1.06,1.3,2.2,2.92,2.47,3.78,6.33,5.74c.51.05,1.01.09,1.54.14-.28-6.38-5.93-11.41-9.87-16.13-.61-.73-1.21-1.47-1.81-2.21-8.88-10.59-21.72-16.57-34.74-20.69,1.63-.9,2.91-1.26,4.77-1.39.5-.04,1-.08,1.52-.11.54-.04,1.08-.07,1.64-.11,4.72-.36,9.43-.8,14.14-1.35.58-.07,1.16-.14,1.76-.21,1.19-.14,2.38-.28,3.57-.42,1.87-.22,3.74-.44,5.6-.66,4.42-.52,8.84-1.03,13.27-1.55q18.98-2.24,23.92.38c2.53.88,5.2.49,7.85.41,1.83.07,2.54.16,3.99,1.17,2.77,1.65,5.4,1.45,8.56,1.1,2.2-.73,3.05-1.22,4.37-3.09,1.62-1.73,2.69-1.56,5-1.69,2.42-.32,4.06-1.82,5.73-3.47Z"/>
  <path class="cls-41" d="M701.94,288.21c.64,0,1.27,0,1.93,0,1.34,0,2.68,0,4.02-.01,2.02,0,4.03-.02,6.05-.04,7.31-.03,14.21.29,21.36,1.82.54.11,1.09.22,1.65.33,1.31.28,2.61.58,3.91.91.46.11.92.23,1.39.35,11.03,2.86,25.43,7.2,31.66,17.33,1.27,3.32,1.29,7.12.04,10.45-.68,1.14-1.41,2.07-2.3,3.06-.25.32-.49.64-.74.96-9.31,10.77-30.88,13.59-44.22,14.79-13.69,1.06-28.33,1.33-41.71-2.02q-.64-.15-1.28-.3c-9.08-2.18-18.1-5.63-25.56-11.24q-.64-.46-1.3-.94c-2.95-2.3-4.74-4.9-5.97-8.4-.21-2.16-.13-3.45.56-5.5q1.12-.62,2.48-1.17c.45-.18.9-.37,1.36-.55.39-.16.79-.31,1.19-.48l1.12-.55c1.94-.13,3.88-.21,5.83-.29,2.13-.28,3.53-.83,5.36-1.91.24-.35.48-.7.73-1.06,1.11-1.33,1.68-1.39,3.32-1.89,3.92-1.55,4.97-5.59,6.57-9.14q.74-1.57,1.68-2.75,1.52-.49,3.32-.69c.58-.07,1.16-.14,1.76-.21q1.08-.1,2.19-.2.71-.07,1.44-.14c4.07-.36,8.1-.51,12.18-.53Z"/>
  <path class="cls-66" d="M909.75,316.9c.01,2.39.02,4.77.03,7.16,0,.81,0,1.62.01,2.43,0,1.17,0,2.34.01,3.5q0,1.05,0,2.13c-.05,1.46-.17,2.63-.62,4.01-8.5,1.85-17,3.58-25.58,5.05-4.04.69-8.05,1.45-12.06,2.27-9.58,1.93-19.24,3.44-28.88,5.03-8.31,1.38-16.61,2.81-24.92,4.25-2.06.36-4.11.71-6.17,1.06-1.83.32-3.66.63-5.5.95-.65.11-1.3.22-1.97.34-.59.1-1.17.2-1.78.31-.51.09-1.02.18-1.54.27q-1.23.21-2.33.8c-.79.14-1.59.26-2.39.36-.53.07-1.06.14-1.6.22-.6.08-1.2.16-1.81.25-17.43,2.45-34.78,5.61-52.09,8.81-1.99.36-3.97.7-5.96,1.04-3.51.6-7.02,1.24-10.52,1.9-8.45,1.57-16.91,3.09-25.37,4.57-1.27.22-2.54.45-3.82.67-1.81.32-3.61.63-5.42.95-.54.09-1.07.19-1.62.29-3.6.62-7.07.95-10.74,1.28v-18.14c7.14-1.57,14.26-3.04,21.47-4.27,4.8-.82,9.58-1.69,14.37-2.56.66-.12,1.31-.24,1.99-.37,2.68-.49,5.35-.98,8.03-1.48,7.16-1.32,14.31-2.57,21.51-3.6,3.86-.55,7.7-1.22,11.54-1.88,1.69-.29,3.39-.58,5.08-.87.44-.07.88-.15,1.33-.23,3.38-.57,6.76-1.12,10.14-1.67,9.47-1.53,18.92-3.06,28.31-5,3.33-.68,6.68-1.25,10.03-1.82,4.85-.83,9.7-1.71,14.55-2.58.57-.1,1.14-.21,1.73-.31,12.3-2.22,24.59-4.53,36.87-6.85,1.92-.36,3.84-.73,5.76-1.09.37-.07.75-.14,1.13-.21,6.76-1.27,13.52-2.49,20.29-3.68,4.62-.82,9.23-1.69,13.81-2.69,1.6-.35,3.03-.61,4.67-.61Z"/>
  <path class="cls-39" d="M728.02,21.77c.5.12.99.24,1.51.36,23.09,5.62,43.67,17.94,58.32,36.47.24.3.48.6.73.91,7.73,9.75,14.12,20.95,16.6,33.16-.69,0-1.38-.01-2.08-.02-.91,0-1.83-.01-2.74-.02-.45,0-.9,0-1.37-.01-2.48,0-4.79.11-7.23.6-.12-.58-.25-1.16-.37-1.75q-1.95-9.7-6.9-18.03-1.75-.18-3.36,0c-.15.53-.3,1.07-.45,1.61-.22.56-.44,1.11-.66,1.68q-.83.27-1.68.55c-.19-.61-.38-1.21-.58-1.84-3.55-11.04-8.75-24.43-18.99-31.14q-1.42-.23-2.8,0c-1.35,2-1.24,2.96-1.19,5.32.01.65.02,1.3.03,1.96.01.5.03.99.04,1.5-2.02-1.49-3.56-3.02-5.1-4.98-8.2-9.98-20.54-20.21-33.48-23.6q-1.86.15-3.36,1.1c.09,3.39.76,6.63,1.68,9.89-2.36-.73-4.57-1.62-6.81-2.64-7.33-3.16-15.32-5.48-23.38-4.5q-1.3.51-2.24,1.1c-.55,3.53,1.35,5.53,3.36,8.24q1.08,1.61,1.68,2.75c-.18.36-.37.73-.56,1.1-.72-.15-1.43-.3-2.17-.46-.96-.2-1.91-.4-2.87-.6-.47-.1-.94-.2-1.42-.3-12.51-2.62-26.64-2.07-38.84,1.92q-.76.62-.58,2.24c.47,2.92,2.68,4.54,4.81,6.45.78.72,1.56,1.45,2.34,2.17.35.32.7.63,1.05.95q.76.82.76,1.92c-.31.03-.62.07-.94.1-12.96,1.41-25.01,4.25-35.86,11.65q-.79.93-.98,2.47c.37,2,1.03,2.56,2.7,3.71.32.2.64.41.97.62,1.14.76,2.25,1.53,3.36,2.34v1.1c-.53.26-1.06.52-1.6.79-8.26,4.15-14.81,9.25-20.77,16.25l-1.12-1.1c11.88-29.12,30.05-52.63,59.91-65.5,22.14-9.24,49.13-12.18,72.61-6.49Z"/>
  <path class="cls-22" d="M539.02,285.58c9.95-.39,18.71,1.39,27.96,4.95-2.34,1.92-5.08,3.06-7.82,4.32q-4.3,2.05-7.28,5.57c-.29,2.46-.22,3.53,1.22,5.6,1.39,1.37,2.79,2.59,4.37,3.74q-.1,1.55-.56,3.3-1.24.91-2.83,1.61c-4.06,2-7.81,4.39-9.68,8.63-.97,3.61-1.12,7.6.77,10.92,2.66,3.48,6.47,4.83,10.48,6.34,3.1,1.29,4.47,3.02,5.74,6.02.61,1.91.65,3.71.66,5.7,0,.61.02,1.21.02,1.83-.13,1.88-.6,3.34-1.25,5.11-.27,2.56.06,4.01,1.68,6.05,2.38,1.42,4.56,1.45,7.27,1.1,3.43-1.02,5.96-3.05,7.83-6.05.43-1.13.85-2.26,1.26-3.4q1.15-2.93,2.82-4.09c2.66-1.07,5.37-1.61,8.23-1.85-1.35,8.34-9.13,16.42-15.66,21.43-4.24,2.89-8.66,5.21-13.42,7.14-.38.16-.77.33-1.16.49-5.24,2.11-10.78,2.46-16.38,2.49-.59.02-1.18.04-1.78.05q-4.28.03-6.47-1.6c-2-2.77-2.6-5.23-2.16-8.58.75-2.53,2.29-4.18,4.05-6.08,3.31-3.71,6.1-7.56,6.92-12.54-.68-3.32-2.61-5.34-5.38-7.21-.77-.38-1.54-.76-2.31-1.13-2.33-1.22-4.04-2.81-5.84-4.67-3.2-3.31-6.48-5.58-11.26-5.81q-.79,0-1.61,0c-.53,0-1.06,0-1.61,0q-1.5.01-3.11.62-.06-.62-.13-1.25c-.41-3.15-.93-5.53-2.74-8.2-1.44-2.18-2.14-3.75-1.93-6.37,1.14-4.32,4.42-7.2,8.15-9.47.39-.25.79-.5,1.19-.75,3.37-1.89,6.71-2.53,10.51-3,3.54-.48,5.73-1.81,8.25-4.35,2.76-3.81,3.21-7.13,3.08-11.68,0-.48-.02-.96-.02-1.45-.02-1.17-.05-2.33-.08-3.5Z"/>
  <path class="cls-38" d="M721.87,6.38q.62.11,1.24.21c3.15.56,6.27,1.24,9.38,1.98.46.11.91.21,1.39.33,20.17,4.86,38.54,15.33,53.66,29.18.36.33.73.67,1.1,1.01,15.11,14.08,25.26,32.82,30.18,52.58q.14.56.28,1.14c.55,2.37.71,4.58.62,7-.91-.5-1.82-1-2.72-1.52-.8-.46-1.62-.9-2.44-1.32-3.25-1.83-4.44-3.43-5.48-6.94-.15-.55-.29-1.1-.44-1.66-3.29-10.84-8.25-20.77-15.2-29.78-.47-.63-.94-1.26-1.41-1.89-13.15-17.43-31.29-29.06-52.03-36.11-.92-.32-1.83-.67-2.74-1.04-2.58-.97-5.31-1.38-8.02-1.91q-.87-.18-1.76-.35c-8.38-1.64-16.49-2.33-25.02-2.29q-.7,0-1.41,0c-7.18.03-14.08.38-21.13,1.82-.59.11-1.17.22-1.77.34-8.27,1.59-16.19,3.55-23.95,6.8-.4.17-.8.33-1.21.5-11.65,4.92-22.04,11.81-31.22,20.38-.26.24-.53.49-.8.74-4.03,3.75-7.56,7.69-10.83,12.1-.66.88-1.33,1.74-2.01,2.6-8.06,10.41-13.43,22.6-18.11,34.76q-1.18,3.06-1.8,3.67c-.8.2-1.6.38-2.41.55-1.63.34-3.25.69-4.86,1.1,1.68-10.52,5.97-20.12,10.62-29.68.18-.36.35-.72.53-1.1,8.11-16.38,20.73-31.17,35.81-41.77.31-.22.62-.45.94-.68,25.77-18.34,61.59-26.28,93-20.76Z"/>
  <path class="cls-72" d="M743.43,132.62q1.36.17,2.48,1.27c.17,1.12.31,2.24.42,3.37.52,3.52,1.35,5.77,4.05,8.18,1.78,1.29,3.61,2.32,5.59,3.3.42.21.84.42,1.27.63,2.99,1.33,5.93,1.87,9.15,2.36,4.46.69,7.43,1.73,10.52,5.08,2.22,3.23,1.77,7.38,1.43,11.16-1.59,7.52-6.57,13.48-12.95,17.64-8.19,4.98-17.14,7.23-26.75,7.09-.1.64-.2,1.27-.31,1.93-.14.85-.28,1.69-.43,2.54-.07.42-.13.84-.2,1.27-.59,3.43-1.46,6.38-4.27,8.69-.31.26-.62.53-.94.8-4.4,2.79-10.76,2.43-15.76,1.47-7.83-2.51-13.59-8.47-17.42-15.46-2.51-5.27-3.79-10.85-4.3-16.63-.18-.18-.37-.36-.56-.55q-.31.54-.63,1.1-1.05,1.1-2.76,1.31-1.64-.21-2.76-1.31c0-3.56,1.54-5.65,3.91-8.24,2.26-2.01,3.94-3.18,6.99-3.5q1.96.21,3.36,1.17.84,1.24.7,2.47c-.14.32-.28.63-.42.96l-2.24.55v1.1q.61.21,1.23.43c1.67.72,2.89,1.57,4.33,2.67,9.71,7.05,20.48,11.3,32.68,11.37.47,0,.93,0,1.41,0,2.98-.03,5.58-.47,8.45-1.28q-.55-.43-1.12-.86c-.55-.44-1.11-.88-1.68-1.34-.35-.27-.7-.55-1.06-.83-4.66-3.78-7.77-8.31-8.64-14.25-.3-5.02,2-8.65,5.23-12.37,1.53-1.67,3.03-2.79,5.03-3.88-.13-2.07-.85-3.21-2.13-4.77-2.83-3.57-4.27-7.23-4.26-11.76.44-1.92,1.41-2.64,3.35-2.87Z"/>
  <path class="cls-3" d="M606.44,101.64c8.15,5.5,12.67,13.37,14.53,22.81,2.47,14.78,3.44,36.89-5.76,49.76-3.66,4.27-7.35,7.57-13.16,8.17-6.62.21-11.8-2.33-16.59-6.67-1.55-1.56-2.74-3.18-3.94-5,1.04-1.07,2.09-2.08,3.26-3.01,6.08-4.84,9.24-12.35,10.06-19.94.87-11.41.5-24.02-5.86-34.01q-.75-1.3-.75-2.84c1.37-4.31,4.11-7.4,7.83-10,3.93-1.78,6.76-1.41,10.38.73Z"/>
  <path class="cls-20" d="M596.06,230.62h.56c.47,4.42.57,8.75.52,13.19-.08,14.61,4.72,27.38,14.74,38.21,5.52,5.33,12.75,8.02,20.06,10.09.52.2,1.04.4,1.57.61.18.54.37,1.09.56,1.65-1.63.54-3,.72-4.7.89-.6.06-1.2.13-1.82.19-1.25.13-2.5.25-3.76.37-4.19.45-8.98.99-12.09,4.05q-.19,1.14-.18,2.46c-.01.51-.02,1.02-.03,1.55q0,.83-.01,1.68t-.02,1.73c-.01,1.21-.02,2.42-.02,3.64-.01,1.84-.05,3.68-.08,5.52,0,1.18-.01,2.36-.02,3.54-.01.55-.03,1.09-.04,1.65.03,5.18,2.23,8.7,5.89,12.32.75.68,1.51,1.35,2.28,2.02.37.34.75.67,1.13,1.02,3.09,2.76,6.22,5.48,9.42,8.11.42.34.83.69,1.26,1.04.43.35.85.7,1.29,1.05q.94,1.04.94,3.24c-2.76-.8-5.13-1.94-7.62-3.33-.39-.22-.78-.44-1.19-.66-8.11-4.61-14.72-10.85-21.35-17.27-.47-.45-.94-.9-1.43-1.37-3.61-3.53-5.28-6.77-6.86-11.45-1.33-3.86-2.97-7.36-4.99-10.91-.86-2.02-.95-3.41-.74-5.58q.55-1.19,1.12-2.2c.37-2.93.02-5.51-1.12-8.24q-1.23-.53-2.8-.55c-1.25.8-2.25,1.76-3.36,2.75h-1.12c-.61-6.75-.74-13.5-.87-20.27-.02-1.13-.05-2.26-.07-3.39-.06-2.74-.12-5.48-.17-8.22-.53.1-1.06.2-1.61.31q-1.75.24-2.87-.31v-4.4h1.12c.06-.67.12-1.34.17-2.03,1.35-5.87,7.57-10.59,11.8-14.63,2.26-2.19,4.1-4.5,5.82-7.12.22-.31.43-.63.66-.95Z"/>
  <path class="cls-6" d="M639.11,353.73c2.15,1.22,3.6,2.39,5.21,4.26,1.83,2.05,3.69,3.89,5.82,5.65,1.32,1.12,2.6,2.28,3.87,3.45,5.31,4.87,10.69,9.4,16.98,13.02q.55.32,1.12.65c1.39.56,2.45.58,3.95.55.54,0,1.07-.02,1.62-.03,2.23-.1,4.44-.31,6.66-.56q.59-.03,1.18-.07c1.5,1.47.72,5.72.73,7.69q.02,1,.05,2.01c.04,5.05-.59,8.91-4.28,12.59-8.55,6.71-19.82,9.7-30.54,9.62q-.9,0-1.81,0c-1.47,0-2.94-.02-4.41-.03q-.48-7.09,1.33-9.24,1.47-1.2,2.59-1.2c-.18-1.09-.37-2.18-.56-3.3-1.72-.17-2.51-.23-3.89.87-.32.38-.64.77-.97,1.16q-.49.56-.99,1.14c-1.63,2.31-2.13,4.39-2.33,7.17-.04.54-.08,1.07-.13,1.63-.03.4-.05.81-.08,1.23-3.38-.3-6.32-1.05-9.51-2.2-.49-4.22.54-6.2,3.11-9.57q.96-1.38.64-2.97c-.13-.39-.26-.79-.4-1.19-2.09.12-2.75.51-4.26,1.99-2.25,2.92-3.19,5.92-3.56,9.55-1.62-.18-2.7-.49-4.09-1.34-1.52-2.27-1.42-4.28-.94-6.9,2.7-7.38,7.33-10.74,14.07-14.39q1.97-.98,3.27-2.64c.07-.91.1-1.83.11-2.75.01-.57.02-1.14.03-1.73q.01-.93.03-1.88c.01-.63.02-1.27.04-1.92.04-2.03.07-4.05.1-6.08.02-1.37.05-2.74.07-4.12.06-3.37.12-6.74.17-10.11Z"/>
  <path class="cls-6" d="M762.69,367.47c.18,3.99.37,7.98.56,12.09,1.66.54,3.32,1.09,5.03,1.65,7.04,2.49,13.62,5.33,17.39,12.1,1.11,2.61,1.43,4.88,1.06,7.69-.8,1.37-1.61,2.18-2.8,3.3h-1.12c-.05-.39-.11-.78-.17-1.19-.66-4.15-1.45-7.04-4.59-10.05q-1.44-1.05-3.63-.86-.59,1.18-.56,2.75c.76,1.06,1.62,1.97,2.51,2.92,1.64,1.81,1.93,3.32,2.13,5.7-.06.6-.12,1.2-.17,1.82-1.84,1.2-2.7,1.29-4.86,1.44q-.83.06-1.68.12c-.42.03-.85.05-1.29.08q-.25-.83-.51-1.67-1.7-5.66-5.08-10.42-1.52-.32-2.8,0-.44.97-.56,2.2c.76,1.39,1.67,2.61,2.6,3.89,1.03,2.21.9,4.16.75,6.55-10.58.31-20.55.45-30.75-2.75-.42-.13-.85-.26-1.28-.39-5.89-1.85-12.55-4.21-16.05-9.5-.19-1.57-.26-2.92-.22-4.48,0-.42,0-.85,0-1.28.01-1.34.04-2.69.07-4.03.01-.91.02-1.83.03-2.74.02-2.23.06-4.47.11-6.7,2.11-.72,4.18-1.32,6.37-1.75q.85-.17,1.71-.34c.6-.12,1.2-.23,1.81-.35.63-.12,1.25-.24,1.89-.37,4-.77,8-1.45,12.03-2.04,4.75-.71,9.46-1.6,14.17-2.5.62-.12,1.23-.23,1.87-.35.55-.1,1.1-.21,1.67-.32q1.53-.23,4.33-.23Z"/>
  <path class="cls-6" d="M798.48,220.72c1.9,1.83,3.54,3.65,5.1,5.77,7.83,10.37,15.72,17.65,28.27,22.02,6.96,2.43,13.61,5.34,17.14,12.12,1.48,3.48,2.39,6.85,2.05,10.65-1.33,2.56-2.33,3.46-5.03,4.4q-.07-.81-.15-1.63-.59-6.25-3.77-11.56-1.77-.67-3.36-.55c-.24,2.25.11,3.68,1.12,5.67,1.62,3.38,1.55,6.07.49,9.62-1.23,2.06-2.22,2.9-4.4,3.95-2.01.32-2.89.33-4.55-.85-1.4-1.81-1.34-3.42-1.35-5.61-.1-3.3-.46-5.94-1.92-8.93h-2.24q.03,1.08.06,2.19c.02.95.03,1.91.05,2.86.01.48.03.95.04,1.44q.05,4.64-1.82,6.7c-3.24.42-5.5-.04-8.39-1.65-1.37-1.41-2.46-2.76-3.5-4.41-2.31-3.47-4.8-4.43-8.8-5.48-.62-.16-1.25-.33-1.89-.5-1.6-.4-3.21-.79-4.82-1.15-.13-4.36.06-8.57.54-12.9.69-6.65.82-13.29.93-19.97.02-1.19.04-2.38.07-3.58.05-2.87.1-5.75.14-8.62Z"/>
  <path class="cls-44" d="M612.54,94.63q.64,0,1.29-.02c.45,0,.9.01,1.36.02q.69,0,1.39.01c6.66.18,11.91,2.9,16.69,7.61,10.12,11,10.15,26.79,9.85,41-.43,13.18-2.87,26.64-12.49,36.07-1.98,1.67-3.9,2.7-6.33,3.48-.53.18-1.06.36-1.61.55-1.19.04-2.39.05-3.58.03-.63,0-1.26,0-1.91-.02-.48,0-.97-.01-1.47-.02.64-1.85,1.29-3.15,2.61-4.57,9.27-10.8,9.85-30.76,9.17-44.35-.92-12.07-3.59-23.84-11.78-32.98-.35-.18-.71-.36-1.07-.55v-1.1c-.38-.14-.75-.27-1.14-.41-1.74-.78-3.2-1.77-4.75-2.89,1.21-1.47,1.91-1.86,3.78-1.89Z"/>
  <path class="cls-62" d="M639.67,298.22c.26.53.53,1.06.8,1.61.35.7.7,1.4,1.05,2.1q.26.52.52,1.06c.73,1.45,1.41,2.78,2.48,4.02,1.09,1.63,1.06,3.33,1.19,5.23.55,5.43,2.44,10.43,6.65,14.18,3.05,2.24,6.34,4.07,9.67,5.88.63.35,1.26.7,1.91,1.05,14.48,7.56,30.91,9.46,47.05,9.53q.61,0,1.23,0c9.35.05,18.46-1.13,27.67-2.65,1.31-.22,2.63-.42,3.94-.63q5.13-.82,10.13-2.23,2.01-.68,3.69-.14c-.37.36-.74.73-1.12,1.1.18.36.37.73.56,1.1-6.97,1.41-13.94,2.7-20.96,3.85-2.52.41-5.03.83-7.55,1.25-.49.08-.99.16-1.5.25-3.79.63-7.57,1.3-11.34,2-6.83,1.26-13.66,2.49-20.49,3.71-1.26.23-2.52.45-3.78.68-1.79.32-3.57.64-5.36.96-.53.1-1.06.19-1.61.29-2.62.46-5.25.87-7.89,1.18-.49.06-.98.12-1.48.18-2.58-.12-4-1.85-5.65-3.63-.72-.72-1.44-1.43-2.16-2.15-.33-.34-.67-.69-1.01-1.04-1.09-1.11-2.24-2.13-3.44-3.13-.33-.28-.66-.56-1.01-.85-.66-.55-1.32-1.11-1.99-1.66-.34-.28-.68-.56-1.02-.85-.29-.24-.58-.48-.88-.73-1.31-1.15-2.53-2.38-3.77-3.6-1.27-1.19-2.56-2.36-3.84-3.54-.36-.33-.73-.66-1.1-1.01-1.53-1.4-3.06-2.8-4.59-4.2-.75-.68-1.5-1.37-2.25-2.05-.7-.64-1.4-1.28-2.09-1.91-1.64-1.5-3.25-3.02-4.82-4.59-1.7-1.69-3.49-3.25-5.32-4.8-2.36-2.03-4.61-4.17-6.88-6.29-1.59-1.48-3.15-2.89-4.88-4.22-.37-.3-.74-.61-1.12-.92v-1.1c3.78-.89,7.54-1.48,11.39-1.96,1.09-.14,2.18-.27,3.26-.41.47-.06.95-.12,1.44-.18q4.9-.78,6.27-.75Z"/>
  <path class="cls-50" d="M792.33,97.07c3.98-.11,6.33.51,9.38,3.01,4.41,4.45,7.53,11.34,9.07,17.32.14.52.28,1.04.43,1.58,4.48,18.27,3.98,38.2-5.93,54.59-1.9,2.88-4.19,5.06-7.36,6.48-.07-3.83.01-7.64.2-11.47.8-16.44.28-31.64-3.45-47.74-.11-.49-.22-.97-.34-1.47-.21-.91-.42-1.82-.65-2.73-.93-4.05-1.04-8.08-1.15-12.22-.02-.71-.04-1.42-.07-2.15-.05-1.73-.1-3.47-.14-5.2Z"/>
  <path class="cls-2" d="M571.13,316.79c3.22-.12,5.09.09,7.59,2.31,1.86,2.05,2.86,4.01,3.88,6.56q1.93,4.84,6.05,7.86c1.52.56,3.05,1.06,4.61,1.52.11,2.96.17,5.51-1.12,8.24-2.88,2.74-6.72,4.08-10.45,5.35-2.51.9-4.08,1.96-5.77,3.99q-.69,1.48-1.12,3.02c-.89,2.64-1.67,4.08-3.91,5.77-1.94.64-3.56.59-5.59.55q.49-4.19,1.12-6.05c.46-5.05-.27-10.02-2.69-14.53-2.95-3.4-6.25-5.08-10.31-6.88-2.42-1.12-3.98-2.13-5.45-4.42-.5-2.57,0-4.16,1.33-6.35,2.39-3.27,5.85-5.44,9.86-6.29,2.94-.23,5.89-.37,8.84-.49,1.05-.05,2.09-.11,3.14-.17Z"/>
  <path class="cls-71" d="M707.38,298.59c1.13,0,2.26-.01,3.39-.03,8.54,0,17.61,1.49,24.52,6.79.52.4,1.04.79,1.57,1.2,1.65,2.09,2.02,3.86,1.78,6.49-1.61,3.29-4.17,5.37-7.48,6.94-12.77,4.12-28.46,3.96-40.61-1.99-2.6-1.62-5.01-3.14-6.15-6.05-.26-2.61-.29-3.85.94-6.18,2.9-3.39,6.01-4.62,10.24-5.91.63-.2,1.26-.4,1.91-.6,3.24-.77,6.56-.68,9.88-.67Z"/>
  <path class="cls-26" d="M616.19,308.66c1.65.74,2.86,1.56,4.18,2.78.36.33.72.67,1.1,1.01.38.36.76.72,1.16,1.09.4.37.79.74,1.2,1.12,2.72,2.54,5.38,5.13,8.02,7.75,1.78,1.76,3.61,3.43,5.53,5.03,2.09,1.78,4.12,3.65,6.15,5.49,1.28,1.16,2.59,2.29,3.91,3.41,2.37,2.03,4.65,4.14,6.93,6.26.84.78,1.67,1.55,2.51,2.33,1.13,1.05,2.26,2.09,3.38,3.14.86.8,1.73,1.6,2.6,2.4.47.44.94.87,1.43,1.32q1.56,1.4,3.1,2.09c1.73.91,2.89,1.67,4.17,3.15.7,3.13.53,6.13.35,9.31-.03.86-.05,1.71-.08,2.57-.06,2.09-.16,4.17-.27,6.26q-9.52-6.98-12.86-10.44c-1.9-1.92-3.81-3.79-5.87-5.53-4.58-3.89-9.06-7.96-13.28-12.23-1.55-1.55-3.17-2.91-4.89-4.26-3.11-2.45-6-5.1-8.89-7.79-.35-.33-.7-.66-1.07-1-.36-.35-.72-.7-1.1-1.06q-1.27-1.17-2.88-2.27c-2.55-1.92-4.26-3.27-5.01-6.42-.19-2.36-.05-4.69.11-7.05.03-.82.06-1.64.08-2.47.07-2,.17-3.99.3-5.98Z"/>
  <path class="cls-69" d="M721.87,6.38q.62.11,1.24.21c3.15.56,6.27,1.24,9.38,1.98.46.11.91.21,1.39.33,20.17,4.86,38.54,15.33,53.66,29.18.36.33.73.67,1.1,1.01,9.66,9,16.86,19.83,22.66,31.52.26.53.53,1.06.8,1.6,1.52,3.14,2.52,6.04,3.15,9.46-1.29-1.58-2.18-3.14-3.04-4.98-3.97-7.92-9.1-15.19-14.85-21.95-.27-.32-.54-.63-.81-.96-11.23-13.21-22.97-23.11-38.33-31.47-.64-.36-1.28-.71-1.94-1.08-11.88-6.26-25.54-9.28-38.88-10.46-.68-.06-1.35-.12-2.05-.19-2.11-.16-4.22-.28-6.34-.36-.41-.02-.81-.03-1.23-.05-32.66-1.07-64.18,8.41-88.8,29.73q-.42.36-.85.73c-3.33,2.87-6.42,5.79-9.21,9.16-.24.28-.48.57-.73.86-6.03,7.14-11.03,14.55-15.66,22.63-.33.57-.66,1.14-.99,1.73-2.04,3.61-3.87,7.26-5.54,11.04-.68-1.99-.4-2.37.43-4.25.23-.52.46-1.03.69-1.57.25-.55.5-1.11.76-1.68.26-.57.52-1.14.78-1.73,8.83-19.32,21.6-36.62,39.27-49.04.31-.22.62-.45.94-.68,25.77-18.34,61.59-26.28,93-20.76Z"/>
  <path class="cls-15" d="M594.94,146.53l.56,1.1c1.23.09,2.47.12,3.7.14,5.28.17,10.16,1.56,15.22,2.95,2.27.62,4.46,1.05,6.8,1.31-.31,9-2.1,18.53-8.6,25.28-3.84,3.51-7.8,5.11-13.01,5.03-6.25-.4-11.01-3.45-15.3-7.78-1.03-1.25-1.91-2.5-2.8-3.85,1.04-1.07,2.09-2.08,3.26-3.01,5.96-4.75,9.09-12.08,10.05-19.49.03-.56.07-1.11.1-1.68Z"/>
  <path class="cls-46" d="M584.32,103.66l1.12.55c-.24.31-.47.62-.71.95q-2.69,3.58-3.2,7.85c1.02,1.26,2.14,2.38,3.28,3.54,6.38,7.52,6.4,20.16,5.67,29.44-.81,6.19-3.01,12.69-7.23,17.45q-1.71,1.24-3.67,1.72c-2.47-.61-3.15-1.44-4.52-3.48-6.63-11.72-7.3-28.17-3.59-40.97,2.52-6.99,6.89-12.52,12.86-17.04Z"/>
  <path class="cls-55" d="M805.43,290.22l1.19,1.17c.46.45.93.89,1.41,1.35.25.26.51.51.77.77.98.98,1.98,1.95,2.98,2.91q5.87,5.68,7.77,7.97c1.13,1.33,2.24,2.41,3.6,3.51,2.21,1.8,3.69,3.12,4.16,5.98q-.31,1.92-1.71,3.19c-3.87,1.84-7.54,2.23-11.78,2.23-.45.01-.91.03-1.37.04-.45,0-.89,0-1.35,0-.4,0-.79,0-1.2.01-4.16-.82-7.02-3.93-9.91-6.75-.43-.41-.86-.83-1.3-1.26-.9-.87-1.79-1.75-2.69-2.63-1.37-1.34-2.75-2.67-4.13-3.99-.87-.85-1.75-1.71-2.62-2.56-.41-.39-.83-.79-1.25-1.19-2.36-2.35-3.47-3.81-3.51-7.16,1.66-1.37,3-1.96,5.11-2.41q.83-.18,1.68-.36c.57-.12,1.15-.23,1.74-.36.57-.12,1.13-.25,1.71-.37q7.99-1.67,10.69-.1Z"/>
  <path class="cls-55" d="M833.15,288.67c1.15.97,2.25,1.94,3.36,2.95.69.61,1.38,1.22,2.06,1.83,3.83,3.43,7.53,7,11.15,10.64q1.31,1.3,2.85,2.41,1.26,1.05,1.86,2.98-.03,1.92-.84,3.16c-3.8,2.55-7.58,2.93-12.06,3.16-.48.05-.96.11-1.46.17-2.69.21-4.35-.05-6.54-1.64-2.87-2.45-5.51-5.16-8.18-7.83-1.29-1.29-2.62-2.51-4.02-3.68-1.89-1.59-3.68-3.26-5.45-4.98-.52-.5-1.04-1-1.57-1.52-1.53-1.66-2.32-2.79-2.59-5.01.22-1.66.52-1.97,1.85-2.99,6.12-2.02,14.07-3.56,19.57.34Z"/>
  <path class="cls-15" d="M805.19,98.16c6.36,1.01,11.07,5.19,15.1,9.89,8.47,11.68,11.09,25.06,9.25,39.21-1.86,10.07-6.12,19.54-14.28,26.19-1.81,1.2-3.66,2.29-5.59,3.3.7-2.23,1.55-4.18,2.69-6.22,1.39-2.69,2.42-5.36,3.29-8.24.11-.35.21-.7.32-1.06.35-1.23.67-2.47.97-3.71.15-.58.29-1.16.44-1.76,1.22-5.28,1.51-10.32,1.48-15.72,0-1.37.01-2.74.03-4.11.06-12.52-3.43-23.37-10.81-33.55-.99-1.38-1.94-2.8-2.89-4.21Z"/>
  <path class="cls-7" d="M533.99,287.22c1.34,2.13,1.36,4.15,1.12,6.6-.75,2.59-1.64,4.81-3.42,6.87-2.31,1.19-4.64,1.49-7.2,1.92-7.49,1.43-14.07,4.83-18.72,10.99-2.01,3.32-2.4,6.65-1.97,10.45.77,2.15,1.96,3.97,3.22,5.87.8,1.46.84,2.39.7,4.02-4.34-.48-7.8-2.91-10.62-6.15-1.9-2.62-2.47-4.07-2.01-7.25,2.59-11.09,11.23-20.98,20.68-27.13q13.88-8.26,18.24-6.18Z"/>
  <path class="cls-73" d="M729.59,307.35q2.42,1.77,3.46,2.95c0,1.8-.37,2.55-1.61,3.88-8.74,5.32-21.46,4.98-31.19,2.74-4.03-1.24-8.03-2.85-10.82-6.07-.05-1.85.36-2.54,1.64-3.88,10.53-6.55,27.97-5.69,38.51.38Z"/>
  <path class="cls-36" d="M520.01,339.44c4.11.57,5.92,3.17,8.5,6.16,2.18,2.14,4.47,3.26,7.28,4.54,1.6.87,2.35,1.49,3.23,3.04.15,3.88-2.09,5.98-4.47,8.79-.9,1.14-1.8,2.28-2.69,3.43-.42.54-.84,1.07-1.27,1.62-1.8,2.58-2.34,4.49-2.3,7.62,0,.56,0,1.12.01,1.7.08,1.34.26,2.48.65,3.76-3.66-1.6-5.52-3.7-7.27-7.14-.53-1.65-.6-3.06-.54-4.78.01-.49.02-.99.04-1.5.03-1.03.07-2.05.11-3.08.08-3.87-.57-6.65-3.15-9.64-.77-.78-1.59-1.52-2.4-2.26-2.67-2.43-3.94-4.01-4.33-7.59q.21-1.92.94-3.54c2.4-1.81,4.74-1.47,7.65-1.13Z"/>
  <path class="cls-48" d="M762.69,367.47c.02,1.63.03,3.25.03,4.88,0,.46,0,.93.01,1.4,0,.44,0,.89,0,1.34,0,.41,0,.82,0,1.24q-.06,1.03-.62,2.13c-.41-.03-.82-.06-1.24-.1-13.54-.55-30.01,4.14-41.26,11.64q-.83.27-1.68.55v-14.84h2.24v-1.1c6.8-1.38,13.59-2.75,20.46-3.75,4.75-.71,9.46-1.6,14.17-2.5.62-.12,1.23-.23,1.87-.35.55-.1,1.1-.21,1.67-.32,1.47-.22,2.85-.27,4.33-.23Z"/>
  <path class="cls-36" d="M575.75,296.37c9.67,7.35,15.1,17.62,17.36,29.25.16,1.32.17,2.6.15,3.93-2-.13-3.04-.23-4.45-1.68-1.34-1.91-2.28-3.88-3.27-5.98-1.56-3.19-2.97-5.99-6.26-7.73-.55-.29-1.1-.59-1.66-.89-2.87-1.18-5.87-.93-8.93-.86q-.89.01-1.81.02c-1.46.02-2.92.05-4.38.08l-.2-1.03c-.09-.44-.18-.89-.28-1.35-.09-.44-.18-.88-.27-1.34-.71-2.34-2.51-3.52-4.46-4.88-.31-.25-.62-.5-.94-.76v-1.65c4.61-3.85,13.55-8.64,19.39-5.15Z"/>
  <path class="cls-78" d="M589.91,350.98c-1.35,8.34-9.13,16.42-15.66,21.43-4.24,2.89-8.66,5.21-13.42,7.14q-.57.24-1.16.49c-5.24,2.11-10.78,2.46-16.38,2.49-.59.02-1.18.04-1.78.05q-4.28.03-6.47-1.6c-1.43-1.99-2.28-3.26-1.95-5.74.12-.4.23-.79.35-1.2q.44.13.89.26c8.73,1.85,19.27-.63,26.86-4.94,2.54-1.43,4.67-2.58,7.59-3.01,3.72-.58,6.08-2.54,8.42-5.36q.99-1.67,1.41-3.14,1.23-3.78,3.11-4.97c1.42-.56,2.8-1,4.29-1.38q.59-.16,1.19-.32,1.05-.23,2.73-.23Z"/>
  <path class="cls-31" d="M493.73,331.19c.23.21.46.42.69.63,2.81,2.48,5.78,4.14,9.13,5.82q2.95,1.54,3.44,2.89c.17,1.18.16,2.24.09,3.43,0,4.95,2.04,7.61,5.47,11.13.43.45.87.9,1.31,1.37.51.48,1.02.96,1.55,1.46,1.89,2.26,1.51,4.76,1.35,7.54-.16,3.66-.08,6.71,1.01,10.24-9.19-3.85-16.35-12.85-20.41-21.6-.72-1.76-1.36-3.53-1.95-5.33-.18-.5-.36-1.01-.54-1.53-1.62-5.25-1.28-10.63-1.14-16.06Z"/>
  <path class="cls-75" d="M626.25,149.83h.56v2.75c.67-.02,1.34-.04,2.02-.06q8.77-.17,13.07,1.71c-1.13,10.13-5.29,19.81-13.42,26.38-1.63.93-3.24,1.63-5.03,2.2q-.83.27-1.68.55c-1.25.04-2.49.05-3.74.03q-.99,0-2-.02c-.51,0-1.01-.01-1.53-.02.67-1.85,1.35-3.15,2.73-4.57,6.59-7.36,8.51-19.53,9.02-28.96Z"/>
  <path class="cls-30" d="M857.78,288.01c3.33-.34,5.27.26,7.83,2.29,1.25,1.07,2.45,2.18,3.64,3.32,1.03.98,2.11,1.88,3.21,2.78,1.54,1.34,3.05,2.7,4.54,4.09.37.34.74.68,1.12,1.03,1.07,1.34,1.42,2.14,1.44,3.84-.89,1.39-1.69,2.03-3.29,2.52-1.27.27-2.53.46-3.81.64-.43.07-.86.14-1.3.21-1.3.2-2.6.35-3.91.48-.43.05-.86.1-1.3.16-2.43.17-3.88-.03-5.82-1.53-.68-.61-1.34-1.23-2-1.86-.72-.66-1.44-1.31-2.17-1.97-.36-.33-.71-.66-1.08-1-1.57-1.42-3.21-2.73-4.86-4.05-1.66-1.33-2.83-2.3-4.02-4.05.08-1.82.12-2.89,1.5-4.17,3.07-1.84,6.8-2.1,10.28-2.74Z"/>
  <path class="cls-35" d="M577.05,175.11c2.07.82,3.1,1.99,4.51,3.68,4.23,4.72,9.57,8.03,16.06,8.54,1.59.02,3.18,0,4.77-.05,1.07-.02,2.14-.05,3.21-.06q.7-.02,1.41-.04c1.44.04,2.74.3,4.15.59,1.91.13,3.82.13,5.73.14.51.01,1.01.02,1.53.03,3.47.02,6.3-.53,9.51-1.82q.17,1.51,0,3.3-1.12,1.17-2.8,2.2-.45.29-.91.58c-5.49,3.15-12.3,2.82-18.45,2.89-.58,0-1.16.02-1.76.03-5.47,0-10.6-.93-15.44-3.53-1.67-.89-3.12-1.61-4.95-2.12q-1.55-.59-2.24-1.66c-.12-.4-.23-.79-.35-1.2-.13-.4-.25-.8-.38-1.21-.08-.3-.16-.61-.25-.92-3.08.19-4.91.99-7.44,2.72q-.95.58-2.07.58c1.31-4.66,3.64-8.53,6.15-12.64Z"/>
  <path class="cls-17" d="M692.79,128.94c3.21,1.19,5.29,3.23,6.8,6.23,1.4,4.35.91,8.99-1.21,13-1.86,2.16-3.82,4.13-6.77,4.57-3.06.15-4.83-.36-7.21-2.37-3.18-3.48-3.64-6.02-3.57-10.65.4-3.72,1.9-6.71,4.79-9.17,2.41-1.63,4.26-2.04,7.16-1.61Z"/>
  <path class="cls-16" d="M802.95,147.63c2.07.17,4.14.24,6.21.33q3.23.16,3.85.77c.19,9.7-3.45,19.75-9.63,27.36-1.71,1.74-3.26,2.91-5.47,3.97-.12-6.75.25-13.49.56-20.23.05-1.19.11-2.37.16-3.56.13-2.88.26-5.76.4-8.64,1.52-.75,2.24-.33,3.91,0Z"/>
  <path class="cls-32" d="M769.4,126.74c3.34,1.74,5.57,4.18,6.97,7.65.92,3.51.67,7.31-.78,10.64-1.22,1.95-2.99,3.22-5.07,4.24-2.25.28-4.56.49-6.65-.5-2.6-2.01-3.87-4.64-4.54-7.75-.51-4.75.62-8.18,3.39-12.06,2.15-2.25,3.6-2.54,6.68-2.23Z"/>
  <path class="cls-61" d="M805.19,98.16c6.36,1.01,11.07,5.19,15.1,9.89,6.02,8.29,9.4,16.7,8.95,26.93-1.6.45-3.05.64-4.72.65-.41,0-.83.02-1.26.02-1.52-.15-2.71-.62-4.09-1.23-.05-.6-.1-1.2-.15-1.82-1.1-12.14-4.68-22.02-12.13-31.84q-1.14-1.52-1.7-2.62Z"/>
  <path class="cls-5" d="M606.43,101.63c3.38,2.29,6.78,4.67,8.08,8.62-.49-.12-.98-.24-1.48-.36-4.96-.5-10.81,4.22-14.74,6.96-1.11.99-1.74,1.75-2.52,3.02-.75,1.23-1.47,2.04-2.52,3.02q-.4-.92-.82-1.87c-.36-.81-.71-1.62-1.07-2.43-.18-.41-.35-.81-.54-1.23-.17-.39-.35-.78-.52-1.19q-.24-.54-.48-1.09-.53-1.14-1.6-2.64c.08-3.55,1.99-6.29,4.42-8.79,4.38-3.97,8.52-5.11,13.78-2.03Z"/>
  <path class="cls-76" d="M803.54,295c1.1.92,2.09,1.89,3.07,2.93.36.36.73.73,1.1,1.1,1.15,1.16,2.28,2.33,3.42,3.51.78.79,1.56,1.57,2.35,2.36q5.69,5.74,5.69,7.06h1.12v1.1h1.12v1.1c-1.49.23-2.97.4-4.47.55-.54.06-1.08.13-1.63.19q-4.34.3-6.34-1.04-1.11-1.11-2.03-2.21c-1.02-1.16-2.03-2.1-3.22-3.09-2.7-2.29-5.23-4.73-7.75-7.21q-.69-.67-1.39-1.35c-.43-.43-.87-.85-1.31-1.29-.39-.38-.79-.77-1.19-1.16q-.85-.97-.85-2.07c.81-.19,1.63-.37,2.45-.55q.68-.15,1.38-.31,6.26-.85,8.51.39Z"/>
  <path class="cls-76" d="M826.38,290.79c2.58.04,3.86,1.3,5.64,3.02q.55.56,1.12,1.14c.74.73,1.49,1.46,2.24,2.18.37.36.74.73,1.11,1.1,1.46,1.4,3,2.71,4.55,4.02,1.53,1.33,2.97,2.74,4.41,4.17.27.27.55.54.83.82.66.65,1.31,1.31,1.97,1.96q-.28.54-.56,1.1c-1.34.29-2.55.44-3.91.55-.52.07-1.04.14-1.57.21-2.56.21-4.38.32-6.53-1.17-1.28-1.28-2.45-2.62-3.64-3.98-.74-.67-1.5-1.32-2.27-1.96-1.95-1.64-3.75-3.39-5.54-5.19-1.49-1.44-3.07-2.77-4.67-4.09q-.93-.85-2.05-2.5c1.02-.19,2.05-.37,3.08-.55q.86-.15,1.73-.31c1.36-.17,2.73-.34,4.09-.52Z"/>
  <path class="cls-81" d="M710.47,188.78c6.96,2.3,14.5,5.41,18.11,12.16q.17,1.61,0,2.75c-3.12,1.78-6.55,1.51-9.98.74-6.28-2.02-11.22-6.32-14.59-11.87q-.59-1.51-.59-3.71c2.27-1.11,4.67-.64,7.05-.06Z"/>
  <path class="cls-17" d="M674.34,57.49c6.98,1.67,14.24,5.01,19.01,10.44q.1,1.48,0,2.75c-2.76-.12-4.59-.84-7.02-2.13-3.71-1.92-7.3-2.68-11.43-3.37.17.3.34.61.52.92.78,1.38,1.54,2.77,2.31,4.16.27.48.54.96.82,1.45.25.46.51.93.77,1.41.24.43.47.85.72,1.29.52,1.39.4,2.03-.11,3.41-2.17-.18-3.36-.78-4.82-2.37q-8.76-10.57-8.53-15.65c1.3-3.22,4.84-2.63,7.76-2.31Z"/>
  <path class="cls-17" d="M723.02,57.8c6.09.17,10.49,5.05,14.51,9.06,2.51,2.68,5.48,5.97,5.66,9.74-.02.4-.05.81-.07,1.23q-1.47,0-3.36-.55c-.93-1-1.67-2.08-2.45-3.19-2.77-3.67-7.12-6.9-11.53-8.35.09.5.18,1,.28,1.51.44,2.96.32,5.95.28,8.93q-1.29.38-2.8.55c-2.52-1.61-2.75-5.01-3.36-7.69-.62-3.2-.92-6.65-.56-9.89,1.3-1.28,1.62-1.29,3.39-1.34Z"/>
  <path class="cls-24" d="M584.32,103.66l1.12.55c-.24.31-.47.62-.71.95q-2.66,3.58-3.2,7.85c.92,1.26,1.91,2.33,3.04,3.41q.88.99.88,2.64c-1.09.74-2.22,1.43-3.36,2.1-6,3.81-8.5,9.66-10.25,16.32-.59,3.01-.83,6-.94,9.06h-.56c-2.28-10.95-1.02-24.07,4.96-33.68,2.43-3.6,5.56-6.57,9.02-9.19Z"/>
  <path class="cls-27" d="M711.81,376.81v21.43h-.56q-.56-2.75-.56-10.99h-18.45v7.69h-.56c-.42-4.96-.63-9.86-.56-14.84,4.48-1.01,8.95-1.87,13.49-2.58.46-.07.91-.14,1.38-.22.43-.07.87-.13,1.31-.2.38-.06.77-.12,1.16-.18q1.1-.13,3.34-.13Z"/>
  <path class="cls-70" d="M658.58,82.71q1.22,1.17,1.43,2.95-.1.75-.21,1.51-4.63-.48-6.71-.86c-2.24-.32-4.45-.28-6.71-.24.87,1.8,1.75,3.4,2.94,5.02q.98,1.58.84,2.89c-.14.29-.28.59-.42.89-3.54-.32-5.4-1.81-7.65-4.41-.5-.61-.99-1.23-1.47-1.84-.25-.3-.51-.61-.77-.92-1.22-1.54-1.83-2.58-2.08-4.54q.22-1.48,1.2-2.48c5.93-3.08,14.07-1.02,19.61,2.03Z"/>
  <path class="cls-15" d="M572.01,152.02q.63.18,1.28.36c5.08,1.31,9.72,1.47,14.94,1.29-1.31,4.09-3.11,8.38-6.71,10.99q-1.92.45-3.91,0c-3.17-2.67-4.99-7.14-6.15-10.99.18-.54.37-1.09.56-1.65Z"/>
  <path class="cls-14" d="M861.1,293.27c2.37,1.34,4.2,3.08,6.15,4.95.96.82,1.93,1.63,2.9,2.44q1.25,1.06,2.13,1.96v1.1c-2.83.76-5.48,1.14-8.39.55-2.14-1.39-3.82-3.13-5.59-4.95-.83-.72-1.67-1.43-2.52-2.13-1.33-1.11-2.09-1.91-3.08-3.37,2.57-1.27,5.62-1.01,8.39-.55Z"/>
  <path class="cls-57" d="M805.19,98.16c6.41,1.02,11,5.24,15.1,9.89.79,1.08,1.51,2.18,2.24,3.3l-.56,1.1q-1.12-.76-2.24-1.65v-1.1c-.37.18-.74.36-1.12.55-1.3.02-2.61.02-3.91,0,.29.6.58,1.2.87,1.82q.8,2.03.24,3.68c-.26-.55-.52-1.09-.78-1.65-2.32-4.79-4.92-9.1-8.16-13.35q-1.12-1.48-1.68-2.58Z"/>
  <path class="cls-19" d="M609.48,334.49c1.18.54,2.21,1.08,3.23,1.87,1.42,1,2.86,1.66,4.46,2.35.55.24,1.1.48,1.67.73.42.18.84.36,1.27.54v1.1l1.68-.55q1.22.52,2.24,1.1v-1.1c1.87.79,3.04,1.79,4.44,3.23,1.28,1.31,2.47,2.41,3.95,3.5.37.32.74.63,1.12.96v2.2c-2.76-.8-5.13-1.94-7.62-3.33-.39-.22-.78-.44-1.19-.66-5.54-3.14-10.69-6.97-15.24-11.4v-.55Z"/>
  <path class="cls-63" d="M714.04,307.01c1.32.61,2.22,1.28,3.36,2.2q-.17,1.31-.56,2.75c-2.49,1.63-4.91,1.39-7.83,1.1q-1.78-.82-2.8-1.65.14-1.58.56-3.3c2.26-1.47,4.65-1.48,7.27-1.1Z"/>
  <path class="cls-60" d="M504.35,363.07c2.49,1.17,4.86,2.57,7.24,3.94,1.49.84,2.86,1.57,4.5,2.11q.53,1.5.94,3.33c.14.61.28,1.21.43,1.84.1.47.2.94.31,1.42-4.06-1.7-6.89-4.16-10.07-7.14q-.54-.48-1.1-.98-.93-.84-2.25-2.32v-2.2Z"/>
  <path class="cls-52" d="M795.12,270.74c4.61.52,8.28,1.56,12.3,3.85l-.56,1.1c-4.04.87-8.17,1.26-12.3,1.1-.02-.8-.03-1.6-.03-2.4,0-.45-.01-.89-.02-1.35q.05-1.19.61-2.29Z"/>
  <path class="cls-28" d="M589.91,335.59h2.8c.03,1.06.05,2.13.07,3.19.01.59.03,1.19.04,1.8q-.11,1.6-1.23,3.25c-2.2,1.06-4.28,1.84-6.71,2.2.37-.18.74-.36,1.12-.55.19-.92.37-1.83.56-2.75.54-1.26,1.12-2.51,1.71-3.74q.46-.96.93-1.93c.24-.48.47-.97.71-1.47Z"/>
  <path class="cls-6" d="M798.48,220.72c1.78,1.75,3.21,3.18,4.65,5.12.29.38.57.77.87,1.16.21.29.42.57.64.87l-.56,1.1c-1.29-1.63-2.58-3.26-3.91-4.95-.03.74-.06,1.49-.09,2.25-.12,2.77-.23,5.54-.35,8.31-.05,1.2-.1,2.39-.15,3.59-.07,1.72-.15,3.45-.22,5.17-.02.53-.04,1.06-.07,1.61-.13,2.95-.38,5.83-.79,8.75h-.56q.28-16.32.56-32.98Z"/>
  <path class="cls-53" d="M789.53,264.69h1.12c-.65,4.31-1.54,8.46-2.8,12.64-1.73.48-2.74.55-4.47,0,.63-1.24,1.26-2.48,1.9-3.72,1.51-2.94,2.98-5.87,4.25-8.92Z"/>
  <path class="cls-4" d="M527.28,371.86c.07.41.15.82.22,1.25.1.54.2,1.08.3,1.64.1.54.19,1.07.29,1.62.25,1.26.52,2.5.86,3.74-3.65-1.59-5.52-3.71-7.27-7.14v-1.1c1.84-.9,3.59-.29,5.59,0Z"/>
  <path class="cls-21" d="M686.08,381.2v14.84h-.56c-.5-4.78-.62-9.49-.56-14.29q-.66.11-1.33.22c-3.09.51-6.19,1.01-9.29,1.43-.18-.54-.37-1.09-.56-1.65,1.63-.2,3.26-.39,4.89-.58q.69-.09,1.4-.17c.45-.05.89-.1,1.35-.16.41-.05.82-.1,1.24-.15q1.18-.04,3.41.51Z"/>
  <path class="cls-51" d="M569.78,177.31l1.12.55q-.3.64-.61,1.28c-.26.55-.52,1.1-.79,1.67-.26.55-.52,1.1-.79,1.66q-.68,1.34-.61,2.53h-1.12c-.88,3.04-1.4,5.63-1.12,8.79.55.36,1.11.73,1.68,1.1q-2.73-.48-3.36-1.1c-.43-5.82,2.99-11.47,5.59-16.49Z"/>
  <path class="cls-67" d="M662.89,38.04c.49,0,.98,0,1.48,0,.51,0,1.02.01,1.54.02q.76,0,1.54-.02c.49,0,.98,0,1.48,0,.45,0,.89,0,1.35,0q1.25.21,3.49,1.86h-15.1q1.89-1.86,4.21-1.87Z"/>
  <path class="cls-8" d="M641.35,234.46h.56c0,.37.02.75.02,1.13.33,6.25,2.87,10.38,7.25,14.81q-1.68,0-2.7-.92c-.34-.4-.69-.8-1.04-1.21-.35-.4-.7-.79-1.05-1.2q-.8-1.07-.8-2.17c-.55-.18-1.11-.36-1.68-.55-.74-3.28-.61-6.55-.56-9.89Z"/>
  <path class="cls-68" d="M584.32,103.66l1.12.55q-.34.47-.69.95c-1.84,2.59-3.11,4.75-3.78,7.85h-.56v-4.4c-.55.54-1.11,1.09-1.68,1.65l-1.12-.55c.7-.7,1.4-1.4,2.1-2.1.39-.39.78-.78,1.18-1.18,1.09-1.03,2.21-1.91,3.43-2.77Z"/>
  <path class="cls-23" d="M658.13,416.38l-1.12,1.65q-1.2.19-2.68.16c-.53,0-1.05-.01-1.59-.02-.55-.01-1.1-.03-1.67-.04q-.83-.01-1.68-.02c-1.37-.02-2.75-.05-4.12-.08v-.55c4.32-.75,8.47-1.27,12.86-1.1Z"/>
  <path class="cls-9" d="M573.13,182.25q.56,1.65.03,2.85-.29.49-.59,1,.58-.37,1.16-.74c.5-.31,1.01-.62,1.53-.94.5-.31,1-.62,1.51-.95q1.39-.67,3.06-.12c-1.28.74-2.56,1.47-3.84,2.2-.36.21-.73.42-1.1.64q-2.75,1.56-4,1.56c.27-.81.53-1.63.8-2.44.15-.45.3-.91.45-1.37q.42-1.14.98-1.69Z"/>
  <path class="cls-37" d="M724.67,20.12c3.73.33,7.1,1.53,10.62,2.75v.55c-3.89-.31-7.44-1.11-11.18-2.2l.56-1.1Z"/>
  <path class="cls-54" d="M693.35.34c3.32.18,6.64.36,10.07.55-2.06,1.35-3.6,1.22-5.98,1.17q-.59,0-1.19-.02c-.97-.01-1.93-.03-2.9-.05V.34Z"/>
  <path class="cls-80" d="M792.89,244.91h.56q.75,8.12,0,11.54c-.37-.18-.74-.36-1.12-.55-.06-3.72-.02-7.31.56-10.99Z"/>
  <path class="cls-40" d="M522.25,372.41c.31.4.62.79.94,1.2,1.28,1.53,2.64,2.91,4.09,4.29.18-.73.37-1.45.56-2.2.37,1.45.74,2.9,1.12,4.4-3.04-1.33-5.24-3.08-6.71-6.05v-1.65Z"/>
  <path class="cls-74" d="M684.41,27.82h8.39c.18.54.37,1.09.56,1.65h-6.15v-1.1h-2.8v-.55Z"/>
  <path class="cls-65" d="M789.53,264.69h1.12c-.16,1.07-.32,2.13-.49,3.19-.09.59-.18,1.19-.28,1.8q-.35,1.6-1.47,3.25c.18-1.27.37-2.54.56-3.85-.37-.18-.74-.36-1.12-.55.55-1.27,1.11-2.54,1.68-3.85Z"/>
  <path class="cls-11" d="M561.39,288.87c1.85.54,3.69,1.09,5.59,1.65-1.8,1.33-2.95,2.12-5.03,2.75-.55-.18-1.11-.36-1.68-.55,1.29-.54,2.58-1.09,3.91-1.65-.46-.26-.92-.52-1.4-.79-.46-.28-.92-.57-1.4-.86v-.55Z"/>
  <path class="cls-29" d="M769.4,149.28l.56,2.2c-2.21-.18-4.43-.36-6.71-.55,2.17-1.42,3.59-1.72,6.15-1.65Z"/>
  <path class="cls-18" d="M749.27,411.43h6.15c.18.36.37.73.56,1.1-1.54.5-2.44.61-4.02.58q-1.06-.02-2.13-.03c-.18-.54-.37-1.09-.56-1.65Z"/>
  <path class="cls-77" d="M630.17,292.17l3.36.55c.18.54.37,1.09.56,1.65h-3.91v-2.2Z"/>
  <path class="cls-33" d="M625.69,403.19h.56v4.4c-1.89-.3-2.84-.58-4.47-1.65.18-.54.37-1.09.56-1.65v1.1c.92.18,1.85.36,2.8.55.18-.91.37-1.81.56-2.75Z"/>
  <path class="cls-13" d="M647.43,398.04c.39.07.78.14,1.19.21-.18.36-.37.73-.56,1.1h-1.68q-.81.72-1.5,1.65c-.43.54-.85,1.09-1.29,1.65-.37-.36-.74-.73-1.12-1.1q2.85-3.23,4.96-3.5Z"/>
  <path class="cls-82" d="M787.85,269.09h1.12v4.95c-.55.18-1.11.36-1.68.55q-.69-2.98-.03-4.6.29-.44.59-.89Z"/>
  <path class="cls-47" d="M674.9,65.19q1.89-.07,3.91,0c.37.36.74.73,1.12,1.1-1.11.18-2.21.36-3.36.55.18.73.37,1.45.56,2.2-1.4-1.19-1.92-2.05-2.24-3.85Z"/>
  <path class="cls-59" d="M719.08,31.11c2.27.67,4.16,1.48,6.15,2.75l-1.68.55q-1.5-.79-2.8-1.65c-.18.54-.37,1.09-.56,1.65-.37-1.09-.74-2.18-1.12-3.3Z"/>
  <path class="cls-42" d="M625.69,158.07h.56c.82,3.01.25,4.46-1.12,7.14h-.56c.08-.78.16-1.56.24-2.34.05-.43.09-.87.14-1.31.16-1.2.41-2.33.74-3.5Z"/>
  <path class="cls-43" d="M706.21,316.35h5.03c-.18.54-.37,1.09-.56,1.65h-3.91c-.18-.54-.37-1.09-.56-1.65Z"/>
  <path class="cls-1" d="M568.66,204.24c.69,2.03.36,3.41,0,5.5-.55.18-1.11.36-1.68.55.26-2.23.49-4.1,1.68-6.05Z"/>
  <path class="cls-58" d="M690,394.94c1.28,1.89,1.22,2.74,1.12,4.95-.55.18-1.11.36-1.68.55q-.07-4.26.56-5.5Z"/>
  <path class="cls-64" d="M778.35,311.41q2.24,2.54,2.24,4.4h-1.12c-.18.54-.37,1.09-.56,1.65-.18-2-.37-3.99-.56-6.05Z"/>
  <path class="cls-34" d="M527.84,338.89c2.4,1.04,3.44,2.4,5.03,4.4h-1.68q-.9-.96-1.78-2.2c-.3-.41-.59-.82-.9-1.24-.22-.32-.45-.63-.67-.96Z"/>
  <path class="cls-12" d="M830.91,285.03c.18.54.37,1.09.56,1.65-1.84.6-2.64.44-4.47,0q2.03-1.65,3.91-1.65Z"/>
  <path class="cls-79" d="M563.63,227.87h.56v4.4h1.12c.18.54.37,1.09.56,1.65-.55.18-1.11.36-1.68.55-.71-1.39-.61-2.37-.59-3.92,0-.5.01-1,.02-1.52,0-.38.01-.77.02-1.16Z"/>
  <path class="cls-56" d="M664.28,416.93c-.55.18-1.11.36-1.68.55v1.1c-1.29-.18-2.58-.36-3.91-.55v-.55c1.9-.43,3.64-.6,5.59-.55Z"/>
  <path class="cls-10" d="M680.49,282.28h1.12v1.1c.92.18,1.85.36,2.8.55v.55h-3.91v-2.2Z"/>
</svg>